<svg xmlns="http://www.w3.org/2000/svg" viewBox="0 0 16 16" role="img" aria-labelledby="title desc" shape-rendering="crispEdges">
  <title id="title">Steak logo</title>
  <desc id="desc">Pixel art steak inspired by the clean Minecraft cooked beef silhouette.</desc>

  <rect x="6" y="1" width="4" height="1" fill="#31130C" />
  <rect x="4" y="2" width="8" height="1" fill="#31130C" />
  <rect x="5" y="2" width="6" height="1" fill="#F5D6A4" />

  <rect x="3" y="3" width="10" height="1" fill="#31130C" />
  <rect x="4" y="3" width="2" height="1" fill="#D7B483" />
  <rect x="6" y="3" width="4" height="1" fill="#C1442C" />
  <rect x="10" y="3" width="2" height="1" fill="#F5D6A4" />

  <rect x="2" y="4" width="12" height="1" fill="#31130C" />
  <rect x="3" y="4" width="1" height="1" fill="#F5D6A4" />
  <rect x="4" y="4" width="3" height="1" fill="#9B2C22" />
  <rect x="7" y="4" width="2" height="1" fill="#F07A4E" />
  <rect x="9" y="4" width="3" height="1" fill="#9B2C22" />
  <rect x="12" y="4" width="1" height="1" fill="#F5D6A4" />

  <rect x="1" y="5" width="14" height="1" fill="#31130C" />
  <rect x="2" y="5" width="1" height="1" fill="#F5D6A4" />
  <rect x="3" y="5" width="4" height="1" fill="#9B2C22" />
  <rect x="7" y="5" width="2" height="1" fill="#C1442C" />
  <rect x="9" y="5" width="3" height="1" fill="#6D1D16" />
  <rect x="12" y="5" width="1" height="1" fill="#F07A4E" />
  <rect x="13" y="5" width="1" height="1" fill="#F5D6A4" />

  <rect x="1" y="6" width="14" height="1" fill="#31130C" />
  <rect x="2" y="6" width="1" height="1" fill="#F5D6A4" />
  <rect x="3" y="6" width="3" height="1" fill="#9B2C22" />
  <rect x="6" y="6" width="2" height="1" fill="#F07A4E" />
  <rect x="8" y="6" width="4" height="1" fill="#9B2C22" />
  <rect x="12" y="6" width="1" height="1" fill="#C1442C" />
  <rect x="13" y="6" width="1" height="1" fill="#F5D6A4" />

  <rect x="1" y="7" width="14" height="1" fill="#31130C" />
  <rect x="2" y="7" width="2" height="1" fill="#F5D6A4" />
  <rect x="4" y="7" width="4" height="1" fill="#9B2C22" />
  <rect x="8" y="7" width="2" height="1" fill="#C1442C" />
  <rect x="10" y="7" width="3" height="1" fill="#6D1D16" />
  <rect x="13" y="7" width="1" height="1" fill="#F5D6A4" />

  <rect x="2" y="8" width="12" height="1" fill="#31130C" />
  <rect x="3" y="8" width="1" height="1" fill="#F5D6A4" />
  <rect x="4" y="8" width="3" height="1" fill="#6D1D16" />
  <rect x="7" y="8" width="2" height="1" fill="#C1442C" />
  <rect x="9" y="8" width="3" height="1" fill="#9B2C22" />
  <rect x="12" y="8" width="1" height="1" fill="#F5D6A4" />

  <rect x="2" y="9" width="11" height="1" fill="#31130C" />
  <rect x="3" y="9" width="3" height="1" fill="#6D1D16" />
  <rect x="6" y="9" width="2" height="1" fill="#9B2C22" />
  <rect x="8" y="9" width="2" height="1" fill="#C1442C" />
  <rect x="10" y="9" width="1" height="1" fill="#9B2C22" />
  <rect x="11" y="9" width="1" height="1" fill="#D7B483" />

  <rect x="3" y="10" width="9" height="1" fill="#31130C" />
  <rect x="4" y="10" width="2" height="1" fill="#6D1D16" />
  <rect x="6" y="10" width="2" height="1" fill="#9B2C22" />
  <rect x="8" y="10" width="2" height="1" fill="#C1442C" />
  <rect x="10" y="10" width="1" height="1" fill="#F5D6A4" />

  <rect x="4" y="11" width="7" height="1" fill="#31130C" />
  <rect x="5" y="11" width="2" height="1" fill="#6D1D16" />
  <rect x="7" y="11" width="2" height="1" fill="#9B2C22" />
  <rect x="9" y="11" width="1" height="1" fill="#F5D6A4" />

  <rect x="6" y="12" width="4" height="1" fill="#31130C" />
</svg>
